<?xml version="1.0" standalone="no"?>
<!DOCTYPE svg PUBLIC "-//W3C//DTD SVG 20010904//EN"
 "http://www.w3.org/TR/2001/REC-SVG-20010904/DTD/svg10.dtd">
<svg version="1.0" xmlns="http://www.w3.org/2000/svg"
 width="512.000000pt" height="512.000000pt" viewBox="0 0 512.000000 512.000000"
 preserveAspectRatio="xMidYMid meet">
<metadata>
Created by potrace 1.16, written by Peter Selinger 2001-2019
</metadata>
<g transform="translate(0.000000,512.000000) scale(0.100000,-0.100000)"
fill="#000000" stroke="none">
<path d="M4015 4722 c-179 -61 -306 -192 -351 -361 -10 -36 -18 -67 -19 -69
-1 -1 -29 10 -61 25 -42 19 -76 27 -116 28 l-58 0 -297 -297 -297 -297 459
-464 460 -464 298 296 297 297 0 54 c0 40 -8 72 -30 117 l-29 63 27 6 c210 46
373 203 427 410 18 68 20 181 4 256 -40 192 -203 363 -395 412 -99 25 -224 21
-319 -12z m298 -142 c122 -38 219 -135 257 -257 56 -181 -18 -371 -182 -467
-49 -28 -179 -61 -207 -51 -9 3 -32 26 -51 51 -34 43 -226 235 -303 302 -37
32 -37 34 -31 85 32 255 273 412 517 337z m-765 -419 c165 -84 433 -338 562
-533 90 -135 93 -118 -64 -277 -74 -75 -173 -176 -220 -226 l-85 -90 -350 350
c-193 192 -351 354 -351 360 0 12 431 445 443 445 4 0 33 -13 65 -29z"/>
<path d="M4072 4420 c-154 -89 -175 -298 -42 -412 47 -41 98 -58 166 -58 100
1 177 49 219 135 52 105 30 222 -55 298 -56 51 -97 67 -172 67 -52 0 -72 -6
-116 -30z m153 -124 c36 -15 65 -59 65 -100 0 -35 -45 -84 -85 -92 -59 -11
-114 35 -115 96 0 44 23 78 64 96 39 16 31 16 71 0z"/>
<path d="M2510 3353 c-42 -43 -75 -121 -66 -156 9 -38 42 -73 99 -105 41 -23
72 -54 131 -132 l78 -101 -63 31 c-35 18 -131 69 -213 113 -203 109 -236 109
-308 -2 -54 -86 -34 -159 61 -212 45 -26 76 -56 134 -129 41 -52 72 -96 68
-98 -4 -1 -94 46 -201 104 -156 86 -205 108 -245 111 -62 6 -94 -16 -130 -88
-47 -91 -28 -149 64 -201 47 -26 77 -55 140 -136 45 -56 79 -102 76 -102 -2 0
-95 50 -207 111 -235 129 -272 140 -326 94 -18 -15 -44 -49 -57 -75 l-24 -47
111 -109 c60 -60 148 -158 195 -219 47 -60 88 -111 92 -113 4 -1 28 13 54 33
25 19 50 35 56 35 5 0 104 -52 219 -115 240 -131 265 -138 325 -85 19 16 45
53 57 82 36 84 10 138 -92 189 -35 18 -67 50 -128 127 -44 56 -78 102 -74 102
6 0 161 -82 371 -196 100 -55 161 -41 213 49 37 65 40 124 8 162 -13 14 -49
40 -80 58 -43 24 -75 55 -131 127 -41 52 -72 96 -68 98 4 1 65 -30 136 -69
276 -150 302 -162 341 -156 45 8 79 38 110 99 45 88 24 145 -76 201 -50 28
-77 54 -141 136 -43 55 -77 101 -75 101 5 0 55 -27 276 -149 211 -116 252
-115 320 5 37 66 36 68 -34 156 -30 38 -65 67 -106 89 -53 28 -75 50 -183 188
-67 85 -127 162 -133 170 -9 12 -21 7 -73 -33 -62 -48 -64 -52 -32 -90 9 -11
12 -17 6 -14 -5 3 -87 49 -181 102 -205 115 -232 120 -294 59z"/>
<path d="M1128 1993 c-157 -159 -291 -298 -297 -310 -20 -40 -13 -101 23 -183
5 -13 -5 -18 -49 -27 -190 -40 -359 -205 -410 -400 -19 -74 -19 -203 0 -277
62 -237 290 -416 529 -416 86 0 156 17 245 61 145 71 258 211 292 362 11 44
17 56 29 51 8 -3 39 -12 69 -20 99 -25 97 -27 422 298 l291 291 -235 236
c-129 130 -319 323 -423 429 -103 105 -190 192 -193 192 -4 0 -135 -129 -293
-287z m615 -251 l317 -317 -224 -224 c-251 -251 -224 -237 -330 -173 -177 106
-416 354 -503 519 l-34 67 223 223 c122 123 225 223 228 223 3 0 148 -143 323
-318z m-768 -429 c28 -43 202 -218 283 -285 66 -54 72 -62 72 -96 0 -95 -61
-225 -135 -289 -116 -101 -273 -128 -420 -73 -84 32 -183 131 -214 214 -90
242 41 489 289 542 88 19 106 17 125 -13z"/>
<path d="M836 1170 c-136 -53 -198 -210 -136 -343 86 -183 356 -184 453 -2 32
59 30 164 -3 229 -59 115 -191 164 -314 116z m160 -161 c51 -48 35 -137 -29
-164 -41 -17 -80 -9 -111 21 -92 92 45 232 140 143z"/>
</g>
</svg>
