<?xml version="1.0" standalone="no"?>
<!DOCTYPE svg PUBLIC "-//W3C//DTD SVG 20010904//EN"
 "http://www.w3.org/TR/2001/REC-SVG-20010904/DTD/svg10.dtd">
<svg version="1.0" xmlns="http://www.w3.org/2000/svg"
 width="512.000000pt" height="512.000000pt" viewBox="0 0 512.000000 512.000000"
 preserveAspectRatio="xMidYMid meet">
<metadata>
Created by potrace 1.16, written by Peter Selinger 2001-2019
</metadata>
<g transform="translate(0.000000,512.000000) scale(0.100000,-0.100000)"
fill="#000000" stroke="none">
<path d="M655 5106 c-81 -20 -146 -57 -211 -121 -63 -63 -97 -121 -120 -208
-20 -74 -20 -739 0 -813 44 -168 179 -298 344 -333 65 -13 410 -15 479 -2 83
16 163 60 228 126 98 97 135 196 135 363 l0 102 313 0 312 0 30 -58 c38 -73
114 -149 187 -187 l58 -30 0 -96 0 -96 -50 -7 c-28 -4 -89 -18 -137 -32 -417
-121 -745 -478 -839 -914 -26 -118 -26 -362 0 -480 80 -368 326 -683 661 -845
95 -46 231 -90 315 -101 l50 -7 0 -96 0 -96 -58 -30 c-73 -38 -149 -114 -187
-187 l-30 -58 -312 0 -313 0 0 103 c0 166 -37 265 -135 362 -65 66 -145 110
-228 126 -69 13 -414 11 -479 -2 -165 -35 -299 -164 -344 -333 -18 -66 -20
-717 -3 -798 36 -171 177 -311 347 -347 69 -14 416 -14 484 0 167 36 299 164
344 333 8 28 14 97 14 154 l0 102 313 0 314 0 24 -52 c54 -117 191 -216 329
-240 183 -32 378 67 465 234 l30 58 313 0 312 0 0 -102 c0 -118 14 -181 60
-267 57 -107 174 -193 298 -220 65 -14 410 -15 481 -1 167 32 313 177 350 348
17 80 15 732 -3 797 -44 165 -178 298 -337 334 -60 14 -425 14 -491 0 -86 -19
-158 -59 -223 -124 -98 -97 -135 -196 -135 -362 l0 -103 -312 0 -313 0 -30 58
c-38 73 -114 149 -187 187 l-58 30 0 96 0 96 50 7 c219 29 463 157 641 335
280 281 402 649 344 1034 -58 388 -328 746 -689 912 -83 39 -221 81 -296 91
l-50 7 0 96 0 96 58 30 c73 38 149 114 187 187 l30 58 313 0 312 0 0 -102 c0
-167 37 -266 135 -363 65 -65 137 -105 223 -124 65 -14 410 -15 481 -1 162 31
302 165 347 334 18 66 20 717 3 798 -36 171 -182 316 -350 348 -71 14 -416 13
-481 -1 -166 -36 -299 -165 -344 -333 -8 -28 -14 -97 -14 -153 l0 -103 -313 0
-313 0 -26 53 c-83 170 -281 271 -468 239 -138 -24 -275 -123 -329 -240 l-24
-52 -314 0 -313 0 0 103 c0 56 -6 125 -14 153 -45 170 -184 303 -347 334 -73
14 -433 11 -494 -4z m1910 -1948 c69 -35 125 -66 125 -70 0 -5 -40 -89 -90
-188 -49 -99 -90 -182 -90 -185 0 -3 133 -5 295 -5 162 0 295 -2 295 -5 0 -16
-402 -805 -410 -805 -9 0 -249 117 -259 126 -3 3 36 87 87 188 51 101 92 186
92 190 0 3 -133 6 -295 6 -162 0 -295 2 -295 4 0 15 403 806 411 806 5 0 65
-28 134 -62z"/>
</g>
</svg>
