<?xml version="1.0" encoding="iso-8859-1"?>
<!-- Uploaded to: SVG Repo, www.svgrepo.com, Generator: SVG Repo Mixer Tools -->
<svg height="800px" width="800px" version="1.1" id="Capa_1" xmlns="http://www.w3.org/2000/svg" xmlns:xlink="http://www.w3.org/1999/xlink" 
	 viewBox="0 0 17.414 17.414" xml:space="preserve">
<g>
	<g>
		<path style="fill:#030104;" d="M16.396,7.428c-0.562,0-1.017,0.455-1.017,1.017v0.436H13.58l0.002-2.369
			c0-0.169-0.067-0.331-0.187-0.45c-0.119-0.12-0.281-0.187-0.449-0.187H6.733c-0.227,0-0.437,0.122-0.55,0.318L4.632,8.881H4.156
			V7.984c0-0.307-0.249-0.556-0.556-0.556S3.044,7.676,3.044,7.984v0.897H2.566V7.984c0-0.307-0.249-0.556-0.556-0.556
			S1.454,7.676,1.454,7.984v0.897h-0.39C0.476,8.881,0,9.358,0,9.944s0.477,1.064,1.064,1.064h0.39v1.201
			c0,0.307,0.249,0.556,0.556,0.556c0.307,0,0.556-0.249,0.556-0.556v-1.201h0.477v1.201c0,0.307,0.249,0.556,0.556,0.556
			s0.556-0.249,0.556-0.556v-1.201h0.3l1.727,2.99c0.114,0.197,0.323,0.318,0.55,0.318h4.141c0.227,0,0.437-0.121,0.55-0.318
			l1.728-2.99h2.228v1.018c0,0.562,0.455,1.017,1.017,1.017s1.018-0.455,1.018-1.017V8.445C17.413,7.883,16.957,7.428,16.396,7.428z
			 M5.939,12.545l2.344-2.344H6.648l3.377-2.551H11L8.667,9.493l1.646,0.002L5.939,12.545z M12.42,8.702L9.851,10.44l1.412-1.336
			h-1.019l2.012-1.455h0.557L11.482,8.7L12.42,8.702z"/>
		<path style="fill:#030104;" d="M7.755,4.368h1.017v0.667c0,0.333,0.271,0.604,0.604,0.604c0.334,0,0.604-0.271,0.604-0.604V4.368
			h1.017c0.352,0,0.636-0.284,0.636-0.635s-0.284-0.636-0.636-0.636H7.756c-0.352,0-0.636,0.285-0.636,0.636
			C7.12,4.084,7.403,4.368,7.755,4.368z"/>
	</g>
</g>
</svg>