<?xml version="1.0" standalone="no"?>
<!DOCTYPE svg PUBLIC "-//W3C//DTD SVG 20010904//EN"
 "http://www.w3.org/TR/2001/REC-SVG-20010904/DTD/svg10.dtd">
<svg version="1.0" xmlns="http://www.w3.org/2000/svg"
 width="225.000000pt" height="225.000000pt" viewBox="0 0 225.000000 225.000000"
 preserveAspectRatio="xMidYMid meet">

<g transform="translate(0.000000,225.000000) scale(0.100000,-0.100000)"
fill="#000000" stroke="none">
<path d="M26 1544 c-27 -27 -31 -63 -9 -92 19 -26 25 -27 129 -32 l109 -5 5
-105 c6 -115 20 -155 67 -188 37 -26 97 -42 159 -42 l51 0 6 -77 c9 -131 64
-243 142 -289 l42 -24 591 0 c341 0 601 4 615 9 41 16 97 71 122 121 22 43 31
73 50 163 5 25 9 27 54 27 31 0 55 6 65 15 23 23 30 97 15 147 l-14 43 -68 5
-67 5 -29 60 c-33 70 -94 129 -148 144 -47 13 -1120 15 -1177 2 -57 -14 -107
-59 -145 -135 l-35 -67 -70 3 -71 3 -6 100 c-6 105 -19 144 -61 181 -42 39
-64 44 -187 44 -95 0 -123 -3 -135 -16z m1631 -311 c-16 -46 -21 -83 -21 -173
0 -90 5 -127 21 -172 l20 -58 -457 0 c-517 0 -469 -8 -512 85 -19 41 -22 67
-22 145 1 103 18 167 56 207 l21 23 457 0 457 0 -20 -57z m252 28 c27 -38 27
-41 -10 -41 -25 0 -32 -6 -45 -35 -7 -19 -14 -50 -14 -70 0 -20 7 -51 14 -70
14 -33 18 -35 62 -35 l46 0 -7 -37 c-9 -53 -43 -121 -66 -134 -52 -27 -101 62
-107 193 -5 100 8 166 44 221 29 45 55 47 83 8z"/>
</g>
</svg>
