<?xml version="1.0" standalone="no"?>
<!DOCTYPE svg PUBLIC "-//W3C//DTD SVG 20010904//EN"
 "http://www.w3.org/TR/2001/REC-SVG-20010904/DTD/svg10.dtd">
<svg version="1.0" xmlns="http://www.w3.org/2000/svg"
 width="1280.000000pt" height="1280.000000pt" viewBox="0 0 1280.000000 1280.000000"
 preserveAspectRatio="xMidYMid meet">
<metadata>
Created by potrace 1.15, written by Peter Selinger 2001-2017
</metadata>
<g transform="translate(0.000000,1280.000000) scale(0.100000,-0.100000)"
fill="#000000" stroke="none">
<path d="M8260 12101 c-468 -123 -769 -262 -1645 -759 -311 -177 -357 -202
-471 -261 -56 -28 -109 -60 -119 -71 -9 -10 -19 -38 -22 -62 -4 -42 18 -215
32 -250 6 -16 0 -18 -69 -18 -65 0 -78 -3 -96 -22 -11 -12 -20 -25 -20 -30 0
-4 -97 -8 -215 -8 -162 0 -223 -3 -243 -14 -15 -7 -63 -16 -107 -20 -44 -3
-118 -15 -164 -26 -242 -58 -400 -166 -592 -402 -359 -441 -529 -948 -579
-1724 -17 -253 -8 -1224 13 -1429 51 -500 118 -843 412 -2104 74 -317 168
-763 200 -949 l16 -92 -36 -47 c-38 -50 -39 -53 -25 -196 15 -157 40 -210 100
-219 22 -3 26 -9 33 -63 19 -148 7 -541 -28 -945 -19 -217 -38 -415 -41 -439
l-6 -44 129 7 c70 3 174 9 231 13 l102 6 0 -315 0 -316 43 -58 c109 -148 320
-293 550 -378 562 -209 1337 -187 1846 50 173 81 349 216 436 334 l35 48 0
929 0 929 30 29 30 29 0 175 -1 176 -29 35 -30 34 0 2846 0 2846 -25 51 c-33
65 -130 172 -209 227 -137 98 -355 184 -566 225 -58 11 -119 27 -135 35 -16 8
-51 21 -77 27 l-48 13 0 143 0 143 -27 11 c-16 6 -83 13 -150 16 -68 3 -123 9
-123 13 0 4 7 25 16 46 25 61 15 181 -19 233 -15 23 -24 41 -20 42 115 7 700
-16 903 -37 508 -51 937 -161 1259 -324 33 -16 64 -30 69 -30 5 0 19 20 31 46
43 86 23 109 -186 216 -354 183 -614 254 -1293 353 -360 53 -399 65 -476 147
l-47 50 6 70 c9 104 28 135 117 187 41 25 190 117 330 206 539 342 769 460
1120 576 133 44 144 59 70 97 -56 28 -90 27 -220 -7z m-2392 -1922 c20 -25 31
-29 73 -29 l50 0 -3 -126 -3 -127 -50 -14 c-27 -8 -63 -25 -80 -37 -16 -13
-64 -31 -105 -41 -318 -76 -568 -235 -670 -426 l-30 -57 0 -2646 0 -2646 -50
0 c-32 0 -52 5 -54 13 -2 6 -27 131 -55 277 -56 291 -90 441 -269 1190 -130
544 -136 572 -183 796 -67 324 -102 559 -130 879 -13 159 -13 1019 1 1215 52
728 191 1154 506 1546 113 141 203 205 333 239 105 27 166 31 435 26 l259 -4
25 -28z m-818 -6535 c0 -13 -21 -44 -30 -44 -6 0 -10 11 -10 25 0 18 5 25 20
25 11 0 20 -3 20 -6z"/>
</g>
</svg>
