<?xml version="1.0" standalone="no"?>
<!DOCTYPE svg PUBLIC "-//W3C//DTD SVG 20010904//EN"
 "http://www.w3.org/TR/2001/REC-SVG-20010904/DTD/svg10.dtd">
<svg version="1.0" xmlns="http://www.w3.org/2000/svg"
 width="225.000000pt" height="225.000000pt" viewBox="0 0 225.000000 225.000000"
 preserveAspectRatio="xMidYMid meet">

<g transform="translate(0.000000,225.000000) scale(0.100000,-0.100000)"
fill="#000000" stroke="none">
<path d="M60 2030 l0 -200 130 0 130 0 0 200 0 200 -130 0 -130 0 0 -200z"/>
<path d="M489 2226 c-2 -2 -3 -92 -1 -200 l3 -196 369 0 370 0 0 200 0 200
-368 0 c-203 0 -371 -2 -373 -4z"/>
<path d="M1400 2167 l0 -63 111 -75 c60 -41 119 -80 130 -88 19 -13 19 -10 19
138 l0 151 -130 0 -130 0 0 -63z"/>
<path d="M1385 1893 c39 -88 55 -163 55 -261 0 -110 -20 -172 -138 -437 -114
-255 -127 -303 -127 -450 0 -110 2 -125 27 -178 31 -65 123 -167 184 -203 163
-96 396 -84 563 27 161 107 240 273 241 501 0 156 -29 276 -103 427 -34 71
-148 241 -161 241 -2 0 1 -19 6 -42 6 -24 11 -90 11 -148 1 -86 -3 -114 -21
-157 -25 -61 -87 -160 -77 -123 14 48 17 203 5 264 -29 149 -113 299 -229 408
-65 62 -235 188 -253 188 -4 0 3 -25 17 -57z"/>
<path d="M60 1440 l0 -200 355 0 355 0 0 200 0 200 -355 0 -355 0 0 -200z"/>
<path d="M968 1633 c-16 -4 -18 -22 -18 -199 l0 -195 102 3 102 3 63 150 c82
196 91 224 72 236 -14 9 -288 11 -321 2z"/>
<path d="M60 835 l0 -195 130 0 130 0 0 195 0 195 -130 0 -130 0 0 -195z"/>
<path d="M480 835 l0 -195 268 0 267 0 1 108 c1 93 12 159 40 260 l6 22 -291
0 -291 0 0 -195z"/>
<path d="M60 220 l0 -200 353 2 352 3 3 198 2 197 -355 0 -355 0 0 -200z"/>
<path d="M950 227 l0 -194 128 -6 c70 -4 229 -7 355 -7 l227 0 0 65 0 65 -47
0 c-80 0 -184 28 -273 72 -66 32 -102 59 -162 120 l-78 78 -75 0 -75 0 0 -193z"/>
</g>
</svg>
