<?xml version="1.0" standalone="no"?>
<!DOCTYPE svg PUBLIC "-//W3C//DTD SVG 20010904//EN"
 "http://www.w3.org/TR/2001/REC-SVG-20010904/DTD/svg10.dtd">
<svg version="1.0" xmlns="http://www.w3.org/2000/svg"
 width="1280.000000pt" height="754.000000pt" viewBox="0 0 1280.000000 754.000000"
 preserveAspectRatio="xMidYMid meet">
<metadata>
Created by potrace 1.15, written by Peter Selinger 2001-2017
</metadata>
<g transform="translate(0.000000,754.000000) scale(0.100000,-0.100000)"
fill="#000000" stroke="none">
<path d="M5628 7520 c-12 -19 -23 -20 -185 -20 -162 0 -173 -1 -183 -20 -6
-12 -21 -20 -35 -20 -18 0 -26 -7 -31 -25 -14 -54 -9 -55 337 -55 l318 0 3
-87 3 -88 105 0 105 0 3 88 3 87 248 0 c187 0 251 3 259 13 14 16 12 105 -2
117 -15 12 -200 19 -608 26 -321 4 -328 4 -340 -16z"/>
<path d="M5750 7085 l0 -84 68 -3 67 -3 -61 -33 c-167 -90 -277 -248 -355
-507 l-27 -90 -723 -1 c-431 -1 -914 -8 -1194 -17 -258 -9 -616 -19 -795 -22
l-325 -6 -35 52 c-41 63 -91 99 -134 99 -34 -1 -58 -12 -103 -51 l-31 -26 44
-739 c24 -406 44 -747 44 -756 0 -15 -9 -18 -45 -18 -39 0 -52 -6 -87 -38
l-41 -38 -61 32 c-123 67 -145 68 -746 55 -398 -9 -551 -16 -599 -27 -247 -56
-441 -299 -441 -549 0 -30 -4 -55 -8 -55 -9 0 -46 -448 -62 -750 -15 -288 -12
-1012 6 -1333 21 -381 47 -680 59 -684 27 -8 31 14 24 107 -57 691 -70 1352
-38 2020 14 314 27 359 28 105 1 -110 8 -477 16 -815 7 -338 17 -777 20 -975
8 -470 15 -539 55 -622 77 -156 264 -274 482 -303 46 -6 244 -7 529 -2 l457 7
5 -63 c14 -182 186 -352 427 -422 103 -30 274 -35 800 -21 467 12 493 15 610
77 162 85 274 241 309 429 8 43 8 132 0 323 -6 145 -9 265 -7 268 12 12 1393
30 1748 23 212 -4 564 -8 782 -8 388 -1 397 -1 403 -21 8 -24 25 -33 90 -49
117 -28 125 -31 125 -51 0 -27 20 -36 27 -12 8 30 72 32 183 5 307 -75 501
-70 845 25 135 36 140 39 143 66 3 24 7 27 30 22 91 -17 102 -17 102 -3 0 16
54 19 910 37 447 10 774 26 1078 53 79 7 145 10 147 7 2 -3 6 -86 10 -185 8
-234 19 -306 56 -382 63 -131 201 -209 471 -268 l110 -23 446 28 c437 27 449
29 541 59 137 46 206 86 286 166 158 158 171 251 145 1020 -5 165 -14 450 -20
633 -55 1801 -47 1653 -101 1769 -56 118 -170 219 -300 264 -61 21 -79 22
-399 23 -329 0 -340 -1 -617 -37 -347 -46 -437 -71 -564 -162 l-46 -33 -6 117
c-11 202 -46 290 -162 407 -76 77 -140 113 -245 140 -59 15 -110 15 -560 5
-526 -12 -573 -17 -668 -65 -27 -13 -71 -42 -99 -64 l-51 -41 -270 -40 c-148
-23 -272 -41 -274 -41 -3 0 -8 190 -11 423 -6 394 -15 558 -48 864 l-13 115
-81 71 c-44 39 -86 78 -93 86 -11 13 -14 13 -28 0 -11 -11 -12 -22 -6 -40 5
-13 12 -57 16 -98 l7 -73 -288 6 c-158 3 -480 9 -714 12 l-426 6 -7 67 c-15
149 -68 293 -144 388 -43 53 -138 127 -207 159 l-40 19 53 3 52 3 0 85 0 84
-225 0 -225 0 0 -85z m2149 -1660 c-12 -181 -36 -406 -55 -515 -17 -98 -51
-220 -62 -220 -4 0 -40 65 -79 144 l-72 143 -98 7 c-54 3 -161 7 -238 8 l-140
2 -6 -44 c-4 -25 -15 -127 -25 -227 l-18 -181 -115 -6 c-64 -4 -154 -9 -200
-12 -79 -6 -83 -5 -77 12 16 41 67 244 93 373 36 180 38 320 5 403 -13 32 -47
91 -77 132 l-53 74 67 6 c36 3 235 13 441 21 206 9 449 19 540 23 91 4 168 5
172 2 4 -3 3 -68 -3 -145z m-3796 19 c980 -6 1160 -9 1164 -21 3 -8 -14 -55
-38 -106 l-44 -92 0 -120 c0 -66 3 -135 7 -152 l8 -33 -45 0 -45 0 0 40 0 40
-459 0 -459 0 -36 -40 c-60 -67 -47 -124 42 -181 42 -27 54 -29 139 -29 108 0
104 6 77 -113 -20 -86 -45 -141 -87 -184 -48 -51 -97 -57 -422 -48 -379 10
-388 11 -421 28 -87 45 -125 49 -445 47 l-306 -1 3 23 c2 13 5 90 8 172 l5
149 -29 28 c-27 28 -32 29 -123 29 l-94 0 -6 282 c-3 156 -3 287 0 292 3 5
100 6 227 2 122 -3 742 -9 1379 -12z m4472 -651 c-4 -10 -6 -118 -6 -240 l1
-223 -22 1 c-13 0 -32 4 -43 8 -19 8 -20 16 -16 162 1 85 0 180 -4 212 l-7 58
-69 -6 c-244 -19 -250 -15 -30 20 189 30 205 30 196 8z m-404 -95 l-9 -33 -1
36 c-1 20 2 39 6 43 13 12 15 -10 4 -46z m-311 -153 c7 -9 8 -15 2 -15 -5 0
-12 7 -16 15 -3 8 -4 15 -2 15 2 0 9 -7 16 -15z"/>
<path d="M6590 1299 c0 -5 -3 -8 -7 -7 -13 4 -53 -26 -53 -39 0 -6 -9 -15 -21
-18 -11 -4 -18 -9 -15 -12 3 -3 -16 -24 -41 -47 -26 -22 -57 -51 -69 -63 -13
-13 -27 -23 -32 -23 -5 0 -17 -9 -27 -20 -10 -11 -20 -18 -22 -16 -3 2 -18 -9
-34 -25 -16 -16 -34 -29 -40 -29 -6 0 -8 -4 -4 -10 3 -5 0 -18 -7 -29 -15 -24
4 -51 36 -51 17 0 18 -2 6 -10 -12 -8 -12 -10 -1 -10 8 0 11 -3 8 -7 -4 -3 11
-14 33 -24 22 -10 40 -21 40 -24 0 -3 -9 -1 -20 5 -11 6 -20 7 -20 3 0 -4 -5
-1 -11 7 -9 13 -10 13 -6 0 2 -8 9 -16 15 -16 7 -1 17 -2 23 -3 5 0 7 -7 3
-13 -4 -7 2 -4 14 6 15 13 22 15 22 6 0 -9 3 -10 13 -1 8 6 17 8 20 5 10 -10
97 -12 103 -2 3 4 -3 5 -13 2 -15 -5 -15 -4 -3 4 9 7 19 7 26 2 7 -6 26 -3 52
10 23 11 48 20 57 20 8 0 15 5 15 12 0 6 3 9 6 5 4 -3 19 0 35 8 15 8 35 12
44 9 10 -4 15 -2 13 6 -2 7 3 15 11 18 8 3 11 0 7 -7 -5 -7 -1 -9 8 -5 9 3 14
10 11 14 -3 4 2 11 11 14 8 3 12 2 9 -4 -3 -5 1 -7 9 -4 8 3 17 12 20 20 3 7
12 11 20 8 9 -4 26 6 42 23 15 15 24 22 20 16 -4 -7 -4 -13 0 -13 9 0 74 40
74 46 0 3 -5 2 -11 -2 -6 -3 -3 5 6 20 10 14 22 26 27 26 5 0 8 6 5 13 -2 6
-10 11 -16 10 -6 -2 -10 0 -10 5 3 19 -2 33 -10 27 -5 -3 -12 4 -16 15 -3 11
-13 20 -21 20 -8 0 -14 4 -14 8 0 5 -21 19 -47 32 -27 13 -50 26 -53 30 -3 3
-23 14 -45 24 -22 9 -49 22 -59 28 -25 14 -116 20 -116 7z m345 -279 c-3 -5
-12 -10 -18 -10 -7 0 -6 4 3 10 19 12 23 12 15 0z"/>
</g>
</svg>
