<?xml version="1.0" standalone="no"?>
<!DOCTYPE svg PUBLIC "-//W3C//DTD SVG 20010904//EN"
 "http://www.w3.org/TR/2001/REC-SVG-20010904/DTD/svg10.dtd">
<svg version="1.0" xmlns="http://www.w3.org/2000/svg"
 width="1280.000000pt" height="1003.000000pt" viewBox="0 0 1280.000000 1003.000000"
 preserveAspectRatio="xMidYMid meet">
<metadata>
Created by potrace 1.15, written by Peter Selinger 2001-2017
</metadata>
<g transform="translate(0.000000,1003.000000) scale(0.100000,-0.100000)"
fill="#000000" stroke="none">
<path d="M5794 9264 l-9 -79 -412 -10 -412 -10 -35 -34 -36 -35 0 -751 c0
-480 4 -763 10 -785 14 -49 24 -236 16 -294 -6 -41 -16 -56 -68 -108 l-60 -60
-72 6 c-39 3 -128 9 -197 12 l-126 7 -11 71 c-7 39 -15 105 -18 146 -7 89 -44
210 -88 288 -44 78 -117 127 -222 147 -137 26 -339 37 -578 32 -342 -7 -367
-17 -456 -182 -51 -95 -62 -136 -100 -377 -25 -159 -60 -612 -60 -780 0 -70
-4 -138 -10 -152 l-9 -25 -58 21 c-51 18 -91 22 -328 29 -148 4 -301 10 -340
14 -79 8 -268 -8 -335 -29 -25 -8 -87 -31 -138 -51 -100 -40 -107 -47 -254
-240 -108 -143 -215 -572 -248 -995 -6 -80 -18 -215 -26 -300 -12 -128 -13
-230 -5 -580 5 -234 6 -428 3 -431 -4 -4 -86 -16 -182 -29 -96 -12 -178 -24
-182 -27 -5 -2 -8 -19 -9 -36 0 -18 -6 -54 -13 -82 -12 -55 -5 -52 -123 -54
-41 -1 -53 -5 -57 -19 -4 -10 14 -271 39 -580 l46 -562 -193 -245 c-148 -188
-198 -245 -215 -245 -34 0 -48 -35 -28 -66 11 -16 14 -35 10 -53 -5 -22 -2
-30 12 -35 18 -7 33 6 59 50 9 16 32 19 200 27 296 13 674 43 686 55 6 6 13
36 16 67 2 30 7 55 11 55 3 0 21 -9 40 -21 33 -20 100 -34 414 -84 l158 -25
1383 0 1384 0 19 26 19 26 1665 -38 1664 -38 35 -22 35 -22 1575 -7 1576 -7
77 27 c42 14 96 27 120 28 40 2 42 1 39 -25 -1 -15 6 -45 17 -65 l19 -39 404
-28 403 -28 43 -40 c36 -33 48 -39 80 -36 37 3 37 3 34 43 -5 57 -27 92 -60
100 -24 5 -59 49 -206 261 l-177 256 56 553 c42 417 54 559 46 574 -14 26 -64
35 -121 22 -87 -20 -83 -25 -78 94 4 85 2 108 -10 118 -9 7 -87 18 -191 27
l-176 15 3 190 c2 105 8 230 13 278 6 56 6 144 -1 245 -5 86 -14 263 -20 392
-6 129 -14 261 -19 292 -6 31 -17 121 -26 200 -31 283 -46 361 -97 523 -46
144 -59 171 -127 275 -41 63 -95 135 -120 160 -51 50 -175 120 -214 120 -14 0
-38 5 -53 10 -96 37 -736 30 -864 -9 -19 -6 -66 -11 -103 -11 l-69 0 8 83 c4
45 8 93 7 107 -32 684 -49 891 -84 999 -7 20 -34 77 -62 128 -43 79 -59 98
-117 142 -69 51 -89 58 -275 89 -53 9 -319 0 -495 -17 -98 -9 -260 -54 -329
-90 -29 -16 -90 -113 -108 -170 -22 -72 -63 -320 -63 -384 l0 -59 -217 7
c-239 8 -232 6 -310 78 -51 47 -50 44 -29 272 8 83 19 238 25 345 16 279 34
1169 26 1240 -6 51 -12 66 -39 90 l-31 30 -300 1 c-165 1 -347 4 -405 8 l-105
6 -3 72 c-3 66 -5 73 -25 77 -12 3 -159 7 -327 10 -168 4 -398 9 -511 13
l-206 6 -9 -79z m-26 -950 c111 -4 202 -10 202 -14 0 -23 -123 -526 -143 -585
-69 -201 -138 -271 -293 -295 -92 -15 -323 -66 -405 -90 -109 -33 -109 -33
-109 58 0 119 20 788 26 870 l6 73 256 -6 c142 -3 348 -8 460 -11z m1446 -10
l389 -6 -7 -197 c-3 -108 -9 -334 -12 -503 -4 -173 -11 -308 -16 -308 -5 0
-21 6 -37 14 -15 8 -63 21 -107 30 -93 17 -389 91 -430 106 -37 14 -92 64
-130 117 -48 66 -112 287 -168 583 -37 190 -41 176 52 173 42 -2 252 -6 466
-9z m2106 -2768 c0 -7 -4 -37 -10 -66 -5 -29 -17 -120 -26 -204 -8 -83 -18
-154 -22 -158 -7 -7 -222 392 -222 411 0 5 46 13 103 18 155 15 177 15 177 -1z
m-5760 -53 c0 -8 -189 -313 -205 -331 -10 -11 -14 3 -19 70 -7 81 -21 185 -32
241 l-6 27 131 0 c72 0 131 -3 131 -7z m1076 -731 c0 -23 3 -44 6 -47 3 -3 56
-16 117 -29 62 -14 114 -26 116 -28 4 -4 -1544 -668 -1558 -668 -4 0 -7 31 -7
69 l0 69 343 268 c188 147 347 271 353 275 10 8 185 28 294 34 42 2 73 12 125
41 61 34 171 66 200 60 6 -2 10 -21 11 -44z m3584 -44 c51 -20 118 -36 215
-49 253 -34 241 -28 574 -303 322 -266 316 -259 309 -378 l-3 -57 -809 340
c-446 187 -811 341 -813 343 -8 7 38 97 51 102 59 23 192 39 291 35 93 -3 121
-8 185 -33z m-4515 -97 c-11 -11 -96 -79 -189 -150 -123 -95 -173 -128 -180
-120 -8 8 -4 16 14 27 75 51 110 85 153 150 40 59 54 72 75 73 15 0 52 8 82
19 30 10 57 18 60 19 2 1 -4 -8 -15 -18z m4576 -388 c357 -130 647 -238 645
-240 -4 -4 -1507 235 -1513 240 -2 3 6 22 18 43 22 38 176 193 193 194 5 0
300 -107 657 -237z m-3008 -150 c48 -100 116 -346 132 -478 8 -62 33 -145 51
-166 20 -22 84 -40 171 -46 l73 -6 0 -171 c-1 -203 -18 -977 -22 -981 -2 -1
-230 3 -508 9 l-505 11 -5 62 c-4 56 -10 69 -50 119 l-44 55 -66 -5 c-274 -20
-534 -36 -538 -31 -5 5 14 125 20 130 2 1 101 -2 221 -7 189 -8 227 -7 274 7
l56 16 -25 27 c-14 15 -92 99 -174 188 -122 131 -165 186 -234 299 -133 216
-167 280 -234 435 l-62 145 -268 7 c-148 4 -270 9 -273 12 -3 3 -2 25 1 49 l7
45 92 16 c240 44 1863 335 1867 335 4 1 23 -34 43 -76z m3084 -118 c527 -97
968 -180 981 -185 19 -8 22 -17 22 -71 l0 -62 -298 8 -298 7 -36 -78 c-20 -44
-46 -103 -58 -133 -24 -62 -31 -75 -202 -362 -129 -216 -129 -217 -282 -373
-146 -149 -153 -158 -137 -176 14 -17 33 -19 186 -21 100 -2 202 3 249 10 58
10 81 10 90 1 11 -11 12 -127 1 -138 -10 -10 -474 39 -509 53 -54 23 -68 19
-120 -34 l-49 -50 7 -81 7 -81 -273 6 c-150 3 -387 8 -525 11 l-253 6 0 558 0
558 28 5 c15 3 87 13 160 23 118 16 133 20 137 38 2 12 25 127 50 256 63 322
113 480 150 480 8 0 446 -79 972 -175z m-1581 -1243 c-7 -271 -16 -495 -19
-498 -6 -6 -944 20 -951 27 -8 7 -19 1109 -12 1109 4 0 56 -25 116 -56 103
-54 114 -57 192 -60 46 -2 109 -9 141 -15 68 -14 200 -6 275 16 56 17 150 59
222 100 l45 25 3 -77 c1 -43 -4 -300 -12 -571z m-5216 -42 c47 -6 126 -19 175
-30 84 -18 175 -27 510 -50 239 -16 1401 -23 1530 -9 63 7 117 10 120 7 3 -3
-2 -36 -11 -73 l-17 -67 -61 7 c-34 4 -223 5 -421 4 -601 -6 -738 -4 -1050 8
-377 15 -639 48 -800 100 -27 9 -53 21 -57 27 -7 10 -11 86 -5 86 1 0 41 -5
87 -10z m9548 -187 l-3 -68 -65 -12 c-240 -43 -513 -84 -526 -79 -16 6 -756
31 -1209 41 -148 3 -357 8 -464 11 l-194 6 6 60 c3 33 7 61 9 62 1 2 280 -5
618 -15 1041 -30 1318 -25 1635 31 88 15 168 28 178 29 16 1 18 -7 15 -66z"/>
</g>
</svg>
