<?xml version="1.0" standalone="no"?>
<!DOCTYPE svg PUBLIC "-//W3C//DTD SVG 20010904//EN"
 "http://www.w3.org/TR/2001/REC-SVG-20010904/DTD/svg10.dtd">
<svg version="1.0" xmlns="http://www.w3.org/2000/svg"
 width="600.000000pt" height="600.000000pt" viewBox="0 0 600.000000 600.000000"
 preserveAspectRatio="xMidYMid meet">
<metadata>
Created by potrace 1.16, written by Peter Selinger 2001-2019
</metadata>
<g transform="translate(0.000000,600.000000) scale(0.100000,-0.100000)"
fill="#000000" stroke="none">
<path d="M1106 4990 c-63 -16 -153 -70 -197 -117 -22 -24 -55 -74 -72 -111
-29 -61 -32 -76 -32 -163 0 -90 2 -99 38 -171 25 -52 53 -91 88 -122 28 -25
55 -46 60 -46 5 0 9 -529 9 -1260 0 -731 -4 -1260 -9 -1260 -5 0 -32 -21 -60
-46 -35 -31 -63 -70 -88 -122 -36 -72 -38 -81 -38 -172 0 -91 2 -100 37 -172
45 -91 103 -147 196 -191 61 -29 76 -32 162 -32 86 0 101 3 162 32 93 44 151
100 196 191 35 72 37 81 37 172 0 91 -2 100 -38 172 -25 52 -53 91 -88 122
-28 25 -55 46 -60 46 -5 0 -9 226 -9 530 l0 530 700 0 700 0 0 -530 c0 -304
-4 -530 -9 -530 -5 0 -32 -21 -60 -46 -35 -31 -63 -70 -88 -122 -36 -72 -38
-81 -38 -172 0 -91 2 -100 37 -172 45 -91 103 -147 196 -191 61 -29 76 -32
162 -32 86 0 101 3 162 32 93 44 151 100 196 191 35 72 37 81 37 172 0 91 -2
100 -38 172 -25 52 -53 91 -88 122 -28 25 -55 46 -60 46 -5 0 -9 226 -9 530
l0 530 700 0 700 0 0 -830 c0 -480 -4 -830 -9 -830 -5 0 -32 -21 -60 -46 -35
-31 -63 -70 -88 -122 -36 -72 -38 -81 -38 -172 0 -91 2 -100 37 -172 45 -91
103 -147 196 -191 61 -29 76 -32 163 -32 90 0 99 2 171 37 91 45 147 103 191
196 29 61 32 76 32 163 0 90 -2 99 -38 171 -25 52 -53 91 -88 122 -28 25 -55
46 -60 46 -5 0 -9 653 -9 1560 0 907 4 1560 9 1560 5 0 32 21 60 46 35 31 63
70 88 122 36 72 38 81 38 171 0 87 -3 102 -32 163 -44 93 -100 151 -191 196
-72 35 -81 37 -172 37 -91 0 -100 -2 -172 -37 -91 -45 -147 -103 -191 -196
-29 -61 -32 -76 -32 -163 0 -90 2 -99 38 -171 25 -52 53 -91 88 -122 28 -25
55 -46 60 -46 5 0 9 -226 9 -530 l0 -530 -700 0 -700 0 0 530 c0 304 4 530 9
530 5 0 32 21 60 46 35 31 63 70 88 122 36 72 38 81 38 172 0 91 -2 100 -37
172 -45 91 -103 147 -196 191 -61 29 -76 32 -162 32 -86 0 -101 -3 -162 -32
-93 -44 -151 -100 -196 -191 -35 -72 -37 -81 -37 -172 0 -91 2 -100 38 -172
25 -52 53 -91 88 -122 28 -25 55 -46 60 -46 5 0 9 -226 9 -530 l0 -530 -700 0
-700 0 0 530 c0 304 4 530 9 530 5 0 32 21 60 46 35 31 63 70 88 122 36 72 38
81 38 172 0 91 -2 100 -37 172 -68 136 -188 217 -336 224 -42 2 -94 -1 -116
-6z"/>
</g>
</svg>
