<?xml version="1.0" standalone="no"?>
<!DOCTYPE svg PUBLIC "-//W3C//DTD SVG 20010904//EN"
 "http://www.w3.org/TR/2001/REC-SVG-20010904/DTD/svg10.dtd">
<svg version="1.0" xmlns="http://www.w3.org/2000/svg"
 width="512.000000pt" height="512.000000pt" viewBox="0 0 512.000000 512.000000"
 preserveAspectRatio="xMidYMid meet">
<metadata>
Created by potrace 1.16, written by Peter Selinger 2001-2019
</metadata>
<g transform="translate(0.000000,512.000000) scale(0.100000,-0.100000)"
fill="#000000" stroke="none">
<path d="M1550 4436 l0 -576 495 0 495 0 0 204 0 204 -482 364 c-266 201 -489
368 -495 372 -10 6 -13 -111 -13 -568z m188 128 c21 -15 22 -20 22 -204 0
-207 -5 -224 -59 -218 -45 5 -52 35 -49 224 3 153 5 174 22 193 23 25 34 26
64 5z"/>
<path d="M3940 4513 c0 -54 -4 -103 -8 -110 -7 -11 -141 -73 -158 -73 -3 0
-40 32 -80 72 l-75 72 -104 -104 -104 -104 69 -72 c39 -40 70 -78 70 -86 0
-23 -57 -150 -71 -159 -8 -5 -56 -9 -106 -9 l-93 0 0 -150 0 -150 93 0 c59 0
99 -5 109 -12 15 -12 68 -132 68 -154 0 -4 -33 -41 -72 -81 l-73 -73 107 -107
107 -107 75 72 c40 40 79 72 84 72 6 0 45 -15 86 -34 l76 -35 0 -105 0 -106
150 0 150 0 0 93 c0 60 5 99 13 111 7 10 44 31 81 46 81 35 84 34 171 -51 l60
-59 105 105 105 105 -68 68 c-78 79 -80 88 -34 182 l32 65 103 3 102 3 0 149
0 150 -89 0 c-49 0 -97 3 -106 6 -19 8 -75 125 -75 157 0 13 27 48 67 89 l68
68 -107 107 -107 107 -75 -72 c-40 -40 -76 -72 -78 -72 -18 0 -145 62 -155 76
-8 12 -13 51 -13 111 l0 93 -150 0 -150 0 0 -97z m235 -388 c164 -42 277 -200
262 -365 -13 -149 -116 -267 -266 -306 -82 -20 -151 -12 -230 27 -120 60 -191
175 -191 309 0 159 104 295 259 336 62 17 96 17 166 -1z"/>
<path d="M4005 4014 c-89 -33 -149 -123 -149 -224 0 -178 178 -292 340 -216
109 51 160 173 123 297 -37 121 -187 190 -314 143z"/>
<path d="M1573 3743 c2 -10 49 -154 103 -320 l98 -303 277 0 277 0 16 48 c31
98 176 578 176 585 0 4 -214 7 -476 7 -449 0 -476 -1 -471 -17z"/>
<path d="M1900 2909 c0 -85 3 -107 22 -140 51 -90 186 -92 245 -3 14 21 19 53
22 136 l3 108 -146 0 -146 0 0 -101z"/>
<path d="M3250 2894 c0 -61 -13 -82 -67 -105 -61 -26 -74 -24 -113 16 -19 19
-39 35 -45 35 -14 0 -95 -82 -95 -96 0 -6 16 -25 35 -44 40 -39 42 -52 16
-113 -23 -54 -44 -67 -105 -67 l-46 0 0 -70 0 -70 53 0 c60 0 75 -11 101 -74
22 -53 21 -61 -19 -105 -19 -21 -35 -42 -34 -47 1 -5 23 -29 50 -53 l49 -44
45 42 45 41 42 -16 c64 -25 88 -55 88 -115 l0 -49 70 0 70 0 0 49 c0 69 7 80
57 102 63 27 82 24 125 -18 l38 -37 52 52 52 52 -37 38 c-42 43 -45 62 -18
125 22 50 33 57 102 57 l49 0 0 70 0 70 -46 0 c-60 0 -82 13 -105 63 -26 59
-24 78 16 117 19 19 35 39 35 45 0 13 -82 95 -94 95 -5 0 -26 -16 -47 -35 -44
-40 -52 -41 -105 -19 -63 26 -74 41 -74 101 l0 53 -70 0 -70 0 0 -46z m133
-218 c65 -19 103 -50 137 -109 89 -156 -23 -348 -202 -347 -129 1 -231 103
-232 231 -1 98 65 190 160 224 50 18 80 18 137 1z"/>
<path d="M3253 2560 c-91 -55 -78 -194 22 -228 51 -17 99 -6 135 30 105 105
-30 276 -157 198z"/>
<path d="M1980 2522 l0 -67 -46 -25 c-77 -40 -94 -58 -94 -95 0 -26 6 -39 26
-52 26 -17 28 -17 97 12 14 6 17 1 17 -31 0 -37 -3 -41 -68 -79 -61 -37 -67
-43 -70 -77 -3 -31 1 -40 23 -54 27 -18 29 -18 98 11 14 6 17 1 17 -33 0 -39
-2 -41 -67 -79 -62 -35 -68 -42 -71 -75 -5 -62 44 -86 109 -52 l30 15 -3 -42
c-3 -41 -6 -45 -63 -78 -72 -41 -76 -46 -73 -91 2 -27 9 -38 31 -48 25 -12 33
-11 68 6 l39 19 0 -41 c0 -39 -2 -42 -53 -70 -74 -41 -87 -55 -87 -92 0 -25 7
-38 26 -51 26 -17 28 -17 97 12 14 6 17 1 17 -33 0 -38 -2 -41 -67 -78 -62
-36 -68 -42 -71 -75 -5 -63 44 -87 108 -54 l30 16 0 -34 c0 -58 59 -87 106
-53 15 11 20 30 24 92 l5 78 65 37 c70 41 90 62 90 94 0 53 -67 71 -126 34
l-34 -21 0 44 c0 43 1 43 72 83 75 43 95 68 84 110 -10 41 -51 51 -104 26 -23
-12 -45 -21 -47 -21 -3 0 -5 17 -5 38 0 37 2 39 75 81 80 45 97 71 77 116 -17
36 -58 43 -103 17 -21 -12 -40 -22 -43 -22 -4 0 -6 18 -6 39 0 37 3 41 58 71
101 57 121 88 86 138 -19 28 -53 28 -104 2 l-40 -20 0 39 c0 37 3 42 48 67
112 65 131 92 96 142 -20 28 -61 29 -109 1 l-36 -22 3 44 c3 42 5 44 68 80 70
41 90 62 90 94 0 52 -69 71 -127 35 l-33 -20 0 30 0 30 -65 0 -65 0 0 -68z"/>
<path d="M1512 1604 c-40 -28 -29 -62 79 -234 109 -172 127 -188 178 -159 50
28 41 60 -60 219 -50 80 -101 155 -112 168 -24 26 -54 28 -85 6z"/>
<path d="M2498 1608 c-8 -7 -59 -81 -112 -164 -101 -158 -113 -195 -78 -227
24 -22 65 -21 85 1 40 43 207 318 207 339 0 48 -64 80 -102 51z"/>
<path d="M1506 1315 c-9 -9 -16 -28 -16 -43 0 -35 188 -333 220 -349 16 -8 31
-8 49 -2 65 25 56 60 -63 244 -98 153 -104 160 -138 163 -23 2 -41 -3 -52 -13z"/>
<path d="M2490 1315 c-7 -8 -55 -81 -107 -162 -79 -125 -93 -153 -91 -183 4
-42 41 -66 80 -51 30 11 228 320 228 354 0 13 -8 31 -18 40 -23 21 -75 22 -92
2z"/>
<path d="M210 415 l0 -305 1835 0 1835 0 0 305 0 305 -695 0 -695 0 -122 -162
c-67 -90 -126 -166 -132 -170 -6 -4 -95 -8 -197 -8 l-187 0 -127 170 -127 170
-694 0 -694 0 0 -305z"/>
</g>
</svg>
