<?xml version="1.0" standalone="no"?>
<!DOCTYPE svg PUBLIC "-//W3C//DTD SVG 20010904//EN"
 "http://www.w3.org/TR/2001/REC-SVG-20010904/DTD/svg10.dtd">
<svg version="1.0" xmlns="http://www.w3.org/2000/svg"
 width="512.000000pt" height="512.000000pt" viewBox="0 0 512.000000 512.000000"
 preserveAspectRatio="xMidYMid meet">
<metadata>
Created by potrace 1.16, written by Peter Selinger 2001-2019
</metadata>
<g transform="translate(0.000000,512.000000) scale(0.100000,-0.100000)"
fill="#000000" stroke="none">
<path d="M2372 4940 c-245 -65 -449 -270 -512 -516 -14 -53 -20 -111 -20 -184
0 -208 65 -365 210 -510 145 -145 302 -210 510 -210 208 0 365 65 510 210 145
145 210 302 210 510 0 73 -6 131 -20 184 -63 248 -268 453 -516 516 -103 27
-270 26 -372 0z m373 -179 c172 -60 316 -224 355 -402 18 -80 8 -229 -18 -304
-63 -173 -225 -316 -403 -355 -80 -18 -229 -8 -304 18 -113 41 -214 124 -284
232 -59 91 -76 156 -76 290 0 140 18 203 87 307 142 211 403 298 643 214z"/>
<path d="M1541 3344 c-30 -8 -81 -29 -114 -46 -78 -42 -773 -621 -828 -690
-82 -104 -119 -213 -119 -360 0 -219 115 -412 303 -507 108 -55 148 -61 415
-61 l242 0 0 -64 c0 -82 24 -205 59 -309 24 -72 27 -93 23 -170 -2 -48 -7 -87
-12 -85 -4 2 -173 80 -376 173 l-369 170 -105 0 c-91 0 -111 -3 -150 -24 -61
-32 -126 -96 -158 -156 -25 -46 -27 -60 -27 -165 0 -105 2 -119 27 -165 53
-102 82 -119 653 -403 354 -175 560 -271 620 -290 l90 -27 1543 -3 1542 -2 0
80 0 80 -560 0 -560 0 0 480 0 480 560 0 560 0 0 80 0 80 -571 0 -571 0 6 23
c4 12 10 66 13 120 l6 97 243 0 c231 0 247 1 321 25 241 76 393 287 393 544 0
146 -37 255 -119 359 -55 69 -750 648 -828 690 -121 64 -80 62 -1138 61 -805
0 -969 -3 -1014 -15z m1932 -154 c38 -6 92 -21 120 -35 31 -15 200 -149 412
-325 385 -322 419 -357 451 -468 26 -87 16 -203 -24 -284 -39 -79 -120 -159
-198 -195 -83 -38 -175 -45 -560 -41 -331 3 -351 4 -384 24 -107 63 -107 205
0 268 33 20 54 21 438 26 385 5 404 6 418 24 19 27 18 90 -3 114 -10 11 -127
110 -261 221 -226 187 -245 201 -282 201 -27 0 -47 -7 -60 -20 -19 -19 -20
-33 -20 -200 0 -168 -1 -180 -18 -180 -10 0 -33 19 -50 44 -46 63 -164 178
-235 229 -201 142 -407 207 -657 207 -250 0 -456 -65 -657 -207 -71 -51 -189
-166 -235 -229 -17 -25 -40 -44 -50 -44 -17 0 -18 12 -18 180 0 167 -1 181
-20 200 -13 13 -33 20 -60 20 -37 0 -57 -14 -292 -210 -268 -222 -286 -243
-266 -302 6 -16 15 -31 21 -36 7 -4 192 -9 412 -12 381 -5 402 -6 435 -26 51
-30 80 -78 80 -134 0 -56 -29 -104 -80 -134 -33 -20 -53 -21 -384 -24 -191 -2
-384 1 -428 6 -105 13 -188 54 -257 127 -75 79 -104 148 -109 260 -4 103 14
168 72 249 44 63 732 637 804 671 29 14 78 30 110 34 82 12 1752 13 1835 1z
m-803 -565 c191 -16 426 -129 563 -273 l39 -39 -33 -12 c-18 -6 -47 -23 -66
-37 l-33 -25 -61 55 c-74 67 -215 139 -323 166 -56 14 -113 20 -196 20 -83 0
-140 -6 -196 -20 -108 -27 -249 -99 -323 -166 l-61 -55 -33 25 c-19 14 -48 31
-66 37 l-33 12 39 39 c101 106 260 200 408 243 86 25 232 45 285 39 14 -2 54
-6 90 -9z m-41 -315 c103 -13 194 -47 280 -104 78 -53 143 -117 133 -132 -6
-9 -309 -240 -338 -257 -7 -4 -28 0 -48 8 -19 8 -63 15 -96 15 -33 0 -77 -7
-96 -15 -20 -8 -41 -12 -48 -8 -28 17 -332 248 -338 257 -10 15 43 69 125 126
78 56 184 97 277 109 36 5 65 9 65 10 0 0 38 -4 84 -9z m-434 -542 l124 -93 1
-70 c0 -47 7 -84 20 -112 l19 -43 -112 0 c-62 0 -149 -3 -194 -6 l-81 -7 -17
54 c-20 65 -33 239 -17 239 14 0 100 89 107 111 4 11 11 19 16 19 5 0 65 -42
134 -92z m900 47 c17 -25 45 -56 62 -68 32 -21 33 -25 33 -89 l0 -66 -127 1
c-71 1 -158 -2 -195 -6 l-68 -8 0 48 1 48 122 92 c67 50 127 92 132 92 6 0 24
-20 40 -44z m-1335 -192 c0 -51 10 -113 26 -165 4 -13 -5 -20 -38 -28 -24 -7
-54 -18 -66 -27 -13 -8 -26 -12 -28 -10 -13 13 -35 122 -41 200 l-6 87 77 0
76 0 0 -57z m1748 -23 c-3 -44 -7 -82 -10 -85 -3 -3 -36 5 -74 17 l-69 23 3
63 3 62 76 0 76 0 -5 -80z m-898 50 c11 -11 20 -33 20 -50 0 -17 -9 -39 -20
-50 -11 -11 -33 -20 -50 -20 -17 0 -39 9 -50 20 -11 11 -20 33 -20 50 0 17 9
39 20 50 11 11 33 20 50 20 17 0 39 -9 50 -20z m625 -244 c77 -17 189 -54 248
-82 l37 -18 0 -493 0 -494 -862 4 c-941 4 -913 3 -1066 63 -37 15 -286 136
-554 270 -524 263 -527 264 -546 352 -19 81 21 173 90 208 72 37 89 32 595
-200 l471 -216 436 0 c423 0 437 1 456 20 24 24 27 87 6 116 -14 18 -33 19
-378 24 -343 5 -365 6 -398 26 -107 63 -107 205 0 268 33 20 53 21 374 24
l340 3 82 39 c93 45 228 86 324 100 85 12 257 5 345 -14z"/>
<path d="M3840 560 l0 -80 80 0 80 0 0 80 0 80 -80 0 -80 0 0 -80z"/>
</g>
</svg>
