<?xml version="1.0" standalone="no"?>
<!DOCTYPE svg PUBLIC "-//W3C//DTD SVG 20010904//EN"
 "http://www.w3.org/TR/2001/REC-SVG-20010904/DTD/svg10.dtd">
<svg version="1.0" xmlns="http://www.w3.org/2000/svg"
 width="512.000000pt" height="512.000000pt" viewBox="0 0 512.000000 512.000000"
 preserveAspectRatio="xMidYMid meet">
<metadata>
Created by potrace 1.16, written by Peter Selinger 2001-2019
</metadata>
<g transform="translate(0.000000,512.000000) scale(0.100000,-0.100000)"
fill="#000000" stroke="none">
<path d="M4590 5106 c-101 -29 -174 -78 -236 -159 -78 -104 -104 -249 -68
-378 l16 -57 -37 -71 c-21 -39 -41 -71 -46 -71 -5 0 -23 9 -41 20 -42 25 -102
26 -126 2 -10 -10 -50 -76 -87 -145 -38 -70 -75 -127 -83 -127 -7 0 -41 7 -75
16 -76 19 -110 9 -133 -38 -18 -39 -8 -79 28 -102 13 -8 167 -53 343 -101 176
-47 418 -113 538 -146 119 -32 229 -59 243 -59 37 0 74 42 74 85 0 47 -26 71
-99 91 l-60 17 25 48 c42 84 25 135 -56 169 -17 7 -30 17 -30 22 0 6 17 41 38
79 36 68 38 69 96 86 211 60 346 290 292 501 -21 85 -49 136 -107 197 -105
111 -270 159 -409 121z m215 -184 c91 -47 140 -126 139 -227 0 -76 -20 -126
-68 -178 -31 -33 -120 -77 -158 -77 -54 0 -75 -20 -133 -126 -32 -57 -62 -104
-67 -104 -17 0 -130 63 -134 75 -3 6 16 48 41 93 68 121 71 132 45 189 -65
144 -20 286 113 354 54 27 70 30 122 26 33 -2 78 -14 100 -25z m-443 -827
c117 -64 216 -119 220 -123 5 -5 2 -15 -4 -24 -12 -15 -35 -11 -258 49 -135
36 -247 68 -249 69 -8 7 63 144 74 144 3 0 101 -52 217 -115z"/>
<path d="M4616 4729 c-21 -38 -36 -71 -35 -73 32 -24 143 -76 148 -70 5 5 24
39 44 75 l36 65 -68 37 c-38 20 -73 37 -78 37 -5 0 -26 -32 -47 -71z"/>
<path d="M3535 3795 c-31 -30 -34 -86 -5 -115 23 -23 10 -20 618 -174 312 -80
503 -124 518 -120 32 8 64 50 64 83 0 42 -26 69 -83 86 -143 40 -1044 265
-1064 265 -13 0 -35 -11 -48 -25z"/>
<path d="M297 3560 c-147 -47 -257 -173 -287 -329 -14 -73 -14 -2808 0 -2881
33 -172 171 -309 342 -340 37 -7 260 -10 625 -8 562 3 569 3 623 25 115 47
211 148 255 268 17 44 19 92 23 433 l4 382 138 0 c132 0 140 1 167 24 28 24
28 24 31 170 l3 146 382 0 c309 0 391 -3 431 -15 27 -8 77 -15 111 -15 34 0
84 7 111 15 41 12 143 15 617 15 l567 0 0 -144 c0 -127 2 -147 19 -167 l19
-24 291 -3 292 -3 29 30 30 29 0 617 c0 651 -1 662 -45 679 -9 3 -146 6 -304
6 -359 0 -329 17 -333 -190 l-3 -145 -272 -3 c-150 -1 -273 0 -273 3 0 3 25
52 56 108 90 164 86 187 -43 257 -43 23 -79 44 -81 45 -2 2 155 296 163 303 1
2 70 -15 152 -37 82 -23 159 -41 172 -41 12 0 36 14 53 30 25 26 29 36 24 63
-4 18 -14 40 -24 50 -18 17 -1053 307 -1099 307 -38 0 -77 -42 -77 -84 0 -55
25 -73 155 -108 63 -17 118 -34 123 -39 4 -4 -15 -50 -44 -103 l-51 -96 -83
45 c-93 51 -124 55 -160 23 -32 -29 -186 -312 -193 -356 -5 -27 -1 -37 29 -65
19 -17 62 -45 96 -61 34 -16 62 -34 62 -39 0 -5 -9 -24 -20 -42 -15 -25 -32
-36 -66 -44 -63 -16 -117 -45 -163 -86 l-38 -35 -307 0 -306 0 0 129 c0 135
-10 185 -40 201 -10 6 -82 10 -159 10 l-139 0 -5 383 c-4 411 -6 425 -61 519
-30 51 -107 127 -158 156 -91 51 -99 52 -722 51 -538 0 -585 -1 -639 -19z
m383 -1770 l0 -1620 -85 0 -85 0 0 1620 0 1620 85 0 85 0 0 -1620z m340 0 l0
-1620 -85 0 -85 0 0 1620 0 1620 85 0 85 0 0 -1620z m340 0 l0 -1615 -82 0
-83 0 -3 1618 -2 1618 85 -3 85 -3 0 -1615z m-1020 0 c0 -970 -4 -1600 -9
-1600 -18 0 -96 66 -118 99 -13 19 -27 50 -33 70 -6 23 -10 528 -10 1436 1
1498 -1 1433 50 1508 24 35 87 86 108 87 9 0 12 -326 12 -1600z m1239 1586
c36 -19 89 -79 110 -125 15 -33 16 -167 16 -1461 l0 -1425 -30 -55 c-27 -49
-101 -120 -126 -120 -5 0 -9 630 -9 1600 0 880 2 1600 5 1600 4 0 19 -7 34
-14z m2144 -487 c37 -13 67 -28 67 -32 0 -9 -107 -207 -119 -219 -5 -6 -124
48 -149 67 -8 7 113 215 122 212 6 -2 41 -15 79 -28z m-183 -387 c146 -79 266
-146 268 -147 5 -5 -72 -145 -80 -145 -8 0 -581 309 -589 318 -4 4 11 40 33
79 l40 73 31 -17 c18 -9 151 -81 297 -161z m-1490 -712 l0 -510 -85 0 -85 0 0
510 0 510 85 0 85 0 0 -510z m2900 0 l0 -510 -170 0 -170 0 0 510 0 510 170 0
170 0 0 -510z m-1594 424 c35 -20 64 -38 64 -40 0 -3 -16 -37 -36 -75 -40 -77
-40 -70 0 -174 74 -195 -124 -390 -325 -320 -61 22 -101 55 -132 113 -37 67
-43 125 -23 195 29 99 96 157 212 181 75 16 89 28 130 108 13 27 29 48 35 48
6 0 40 -16 75 -36z m-630 -310 c-11 -66 2 -165 33 -237 l20 -47 -279 0 -280 0
0 170 0 170 258 0 259 0 -11 -56z m1374 -98 c0 -85 -3 -161 -6 -170 -5 -14
-41 -16 -295 -16 l-288 0 27 58 c24 51 26 68 26 170 l0 112 268 0 268 0 0
-154z m340 -16 l0 -170 -85 0 -85 0 0 170 0 170 85 0 85 0 0 -170z"/>
<path d="M3060 1845 l0 -85 85 0 85 0 0 85 0 85 -85 0 -85 0 0 -85z"/>
<path d="M3376 3498 c-42 -39 -36 -107 12 -132 41 -21 1051 -286 1090 -286 43
0 82 38 82 80 0 39 -35 75 -86 89 -22 5 -261 69 -532 141 -272 71 -505 130
-517 130 -13 0 -35 -10 -49 -22z"/>
</g>
</svg>
