<?xml version="1.0" standalone="no"?>
<!DOCTYPE svg PUBLIC "-//W3C//DTD SVG 20010904//EN"
 "http://www.w3.org/TR/2001/REC-SVG-20010904/DTD/svg10.dtd">
<svg version="1.0" xmlns="http://www.w3.org/2000/svg"
 width="512.000000pt" height="512.000000pt" viewBox="0 0 512.000000 512.000000"
 preserveAspectRatio="xMidYMid meet">
<metadata>
Created by potrace 1.16, written by Peter Selinger 2001-2019
</metadata>
<g transform="translate(0.000000,512.000000) scale(0.100000,-0.100000)"
fill="#000000" stroke="none">
<path d="M3570 4947 c-90 -31 -145 -65 -212 -133 -63 -63 -123 -172 -133 -239
l-6 -40 386 -263 c212 -145 392 -265 400 -268 13 -5 15 55 15 480 l0 486 -192
0 c-173 0 -200 -3 -258 -23z"/>
<path d="M4310 4485 c0 -300 4 -485 10 -485 5 0 187 122 404 270 l394 270 -13
49 c-33 126 -137 258 -250 318 -106 55 -149 63 -357 63 l-188 0 0 -485z"/>
<path d="M1856 4658 c-44 -5 -132 -20 -195 -34 -865 -187 -1522 -895 -1646
-1774 -20 -141 -19 -438 1 -581 110 -789 658 -1452 1411 -1708 385 -131 812
-147 1208 -46 72 18 164 46 205 62 l75 29 3 257 c1 141 0 257 -3 257 -3 0 -36
-15 -73 -34 -258 -129 -585 -194 -857 -168 -161 15 -252 34 -396 82 -254 84
-471 221 -660 416 -233 242 -374 513 -441 846 -29 145 -31 431 -5 573 63 338
205 616 442 863 455 475 1141 634 1750 407 55 -21 130 -53 167 -71 37 -19 70
-34 73 -34 3 0 4 116 3 257 l-3 257 -75 29 c-113 43 -320 93 -458 111 -134 17
-394 19 -526 4z"/>
<path d="M3210 3857 l0 -333 390 -268 c215 -147 397 -269 405 -273 13 -5 15
36 13 328 l-3 332 -385 264 c-212 146 -393 269 -402 274 -17 9 -18 -9 -18
-324z"/>
<path d="M4713 3914 l-403 -276 0 -329 c0 -201 4 -329 10 -329 5 0 187 122
405 271 l395 270 0 335 c0 184 -1 334 -2 334 -2 0 -184 -124 -405 -276z"/>
<path d="M1858 3894 c-112 -20 -250 -67 -358 -121 -100 -50 -250 -151 -250
-168 0 -6 128 -138 284 -294 l285 -284 59 26 c33 15 65 27 71 27 8 0 11 114
11 415 0 326 -3 415 -12 414 -7 0 -47 -7 -90 -15z"/>
<path d="M2250 3500 c0 -382 1 -411 18 -417 9 -3 42 -16 72 -30 l54 -24 263
263 263 263 0 47 c0 46 -1 48 -57 86 -77 52 -221 123 -313 155 -65 22 -258 67
-289 67 -8 0 -11 -120 -11 -410z"/>
<path d="M976 3308 c-69 -106 -106 -181 -146 -293 -29 -84 -69 -248 -70 -288
0 -16 24 -17 412 -15 l412 3 19 48 20 49 -289 289 c-159 159 -292 289 -297
289 -4 0 -32 -37 -61 -82z"/>
<path d="M3210 2827 l0 -343 390 -268 c215 -147 397 -269 405 -273 13 -5 15
37 13 337 l-3 343 -385 264 c-212 145 -393 269 -402 274 -17 9 -18 -10 -18
-334z"/>
<path d="M4713 2894 l-403 -276 0 -339 c0 -208 4 -339 10 -339 5 0 187 122
405 271 l395 270 0 345 c0 189 -1 344 -2 344 -2 -1 -184 -125 -405 -276z"/>
<path d="M2748 2973 l-156 -158 20 -52 21 -53 143 0 144 0 0 210 c0 116 -3
210 -8 210 -4 0 -78 -71 -164 -157z"/>
<path d="M2051 2809 c-133 -26 -222 -168 -192 -303 40 -180 242 -258 398 -153
116 78 139 254 49 372 -50 65 -163 103 -255 84z"/>
<path d="M760 2393 c1 -78 75 -325 132 -438 28 -56 116 -195 153 -240 15 -19
27 -8 306 271 l290 290 -32 67 -31 67 -409 0 c-383 0 -409 -1 -409 -17z"/>
<path d="M2630 2398 c0 -7 -12 -35 -25 -63 -14 -27 -25 -55 -25 -60 0 -12 321
-335 333 -335 4 0 7 106 7 235 l0 235 -145 0 c-109 0 -145 -3 -145 -12z"/>
<path d="M3212 1794 l3 -338 400 -274 400 -273 3 332 c2 258 -1 336 -10 345
-11 10 -696 480 -771 529 l-27 17 2 -338z"/>
<path d="M4713 1854 l-403 -276 0 -335 c0 -188 4 -333 9 -331 5 2 187 125 404
273 l396 270 1 338 c0 185 -1 337 -2 337 -2 0 -184 -124 -405 -276z"/>
<path d="M1556 1781 l-288 -288 63 -45 c167 -118 390 -207 582 -231 l47 -7 0
413 0 412 -49 18 c-27 9 -53 17 -57 17 -5 0 -139 -130 -298 -289z"/>
<path d="M2300 2051 l-45 -19 -3 -412 -2 -412 42 7 c204 30 390 99 551 204 59
39 77 56 77 73 0 17 -77 100 -278 301 -152 152 -282 277 -287 276 -6 0 -30 -8
-55 -18z"/>
<path d="M3212 829 c3 -255 5 -278 26 -334 45 -119 138 -229 241 -284 101 -53
147 -61 353 -61 l188 0 0 203 0 203 -391 268 c-215 147 -398 270 -406 273 -12
5 -14 -33 -11 -268z"/>
<path d="M4708 827 l-398 -272 0 -202 0 -203 188 0 c143 0 201 4 243 16 177
52 311 186 363 363 13 44 16 106 16 313 0 142 -3 258 -7 258 -5 -1 -187 -123
-405 -273z"/>
</g>
</svg>
